<svg width="1921" height="434" viewBox="0 0 1921 434" fill="none" xmlns="http://www.w3.org/2000/svg">
<g clip-path="url(#clip0_98_221070)">
<path d="M1920.91 0H0.914062V434H1920.91V0Z" fill="url(#paint0_linear_98_221070)"/>
<path d="M242.791 0H958.927C960.435 1.97906 959.398 3.58115 957.891 4.90053C949.032 12.3456 939.419 18.5655 929.335 24.2199C926.414 25.9162 922.644 25.9162 920.1 28.4607C914.069 31.0995 907.754 32.6073 901.44 34.2094C896.257 35.5288 890.979 35.6231 885.702 35.4346C883.629 35.4346 881.744 36.2827 879.859 37.0367C879.294 37.1309 878.728 37.2251 878.163 37.2251C870.058 37.1309 861.953 37.8848 853.849 37.7906C852.152 38.4503 850.456 37.7906 848.76 37.7906C844.425 36.4712 840.278 34.3037 835.472 35.6231C834.341 35.9058 833.304 35.6231 832.267 35.3403C825.199 34.3037 818.037 33.3613 810.969 32.2304C804.466 31.1937 798.246 29.1204 791.838 27.7068C790.613 27.4241 789.482 26.9529 788.163 26.8586C776.194 26.0105 764.226 23.8429 752.163 24.8796C738.686 26.1047 725.21 27.8011 712.016 31.0995C704.383 32.9843 697.314 36.377 689.869 38.4503C689.492 38.733 689.021 38.9215 688.55 39.0157C687.231 39.11 686.006 39.4869 685.063 40.4293C684.686 40.7121 684.403 40.8063 683.932 40.9948C682.707 41.2775 681.953 42.4084 680.917 42.8796C680.54 43.0681 680.163 43.1623 679.786 43.2566C678.466 43.2566 677.807 44.2932 676.958 45.0471C673.472 47.8744 668.948 49.0053 665.555 51.8325C654.906 59.843 644.917 68.7016 634.644 77.1833C633.608 78.0314 632.854 78.8796 632.383 80.1047C625.032 87.1728 618.435 94.9006 611.744 102.44C610.519 103.853 608.917 104.89 607.597 106.209C600.812 115.539 592.99 124.021 585.356 132.597C581.869 137.969 577.252 142.398 572.634 146.733C571.032 148.241 569.335 149.466 568.299 151.539C567.074 153.141 565.472 154.178 563.964 155.497C560.571 159.644 556.707 163.319 552.184 166.335C551.524 167.089 550.77 167.843 550.204 168.785C549.545 169.916 548.32 170.199 547.283 170.859C546.623 171.33 545.964 171.801 545.492 172.367C545.115 172.838 544.738 173.309 544.173 173.592C543.419 173.969 542.759 174.44 542.006 174.817C539.649 176.325 537.765 178.398 535.974 180.471C533.524 182.545 529.943 182.922 528.341 186.031C525.513 188.105 522.403 189.613 519.67 191.592C515.901 195.738 510.623 196.963 506.005 199.602C504.78 199.791 503.555 200.073 502.519 200.922C501.765 201.299 501.011 201.77 500.257 202.241C496.581 203.937 492.623 205.162 489.136 207.236C484.896 206.764 482.163 210.251 478.581 211.194C471.985 213.173 465.293 214.586 458.508 215.152C456.623 215.34 454.833 215.717 453.136 216.566C452.005 216.848 450.969 216.471 449.838 216.566C439.848 217.508 429.765 216.566 419.681 216.942C408.278 215.623 397.157 212.89 386.131 209.403C380.382 204.88 372.843 204.408 366.529 200.827C358.613 196.398 350.979 191.686 343.534 186.408C339.105 182.168 333.922 178.963 329.398 174.911C322.613 168.88 316.016 162.66 310.55 155.497C303.859 148.052 297.45 140.325 292.55 131.466C287.084 124.492 282.749 116.764 278.979 108.754C273.984 100.084 269.272 91.2252 265.974 81.6126C263.712 78.8796 263.524 75.2985 261.922 72.2828C261.733 70.3037 261.262 68.4189 260.225 66.7225C260.131 66.2513 259.943 65.8744 259.754 65.4032C256.927 58.3351 253.44 51.4555 251.932 43.9162C251.084 39.7696 247.88 36.377 248.445 31.8534C248.445 30.4398 247.314 29.3089 247.22 27.9895C247.032 27.2356 246.843 26.5759 246.56 25.9162C244.958 20.0733 242.979 14.4189 241.566 8.57592C240.812 5.46597 240.152 2.45026 242.979 0L242.791 0Z" fill="url(#paint1_linear_98_221070)"/>
<path d="M1231.34 448.854C1168.99 375.56 1153.79 238.753 1310.16 187.728C1410.27 164.878 1406.88 200.411 1509.03 205.737C1572.15 209.028 1549.88 130.604 1633.25 130.604C1735.39 130.604 1840.54 345.74 1817.21 448.951C1793.87 552.162 1350.63 589.244 1231.34 448.951V448.854Z" fill="url(#paint2_linear_98_221070)"/>
<path d="M1523.31 472.768C1523.31 472.768 1490.01 432.588 1510.24 391.051C1532.9 344.48 1588.67 284.064 1649.08 297.135C1683.55 304.59 1694.4 349.031 1725.18 353.194C1755.97 357.358 1734.04 250.934 1776.5 235.073C1846.52 218.64 1898.2 279.998 1917.86 304.493C1937.51 328.989 1981.57 442.56 1955.42 465.41C1929.28 488.26 1877 525.052 1821.62 527.472C1766.24 529.893 1523.31 472.768 1523.31 472.768Z" fill="url(#paint3_linear_98_221070)"/>
</g>
<defs>
<linearGradient id="paint0_linear_98_221070" x1="960.914" y1="0" x2="960.914" y2="434" gradientUnits="userSpaceOnUse">
<stop stop-color="#1A52DE"/>
<stop offset="1" stop-color="#001B90"/>
</linearGradient>
<linearGradient id="paint1_linear_98_221070" x1="600.289" y1="0" x2="600.289" y2="217" gradientUnits="userSpaceOnUse">
<stop stop-color="#297CD8"/>
<stop offset="1" stop-color="#0162CD" stop-opacity="0"/>
</linearGradient>
<linearGradient id="paint2_linear_98_221070" x1="1503.72" y1="130.604" x2="1503.72" y2="540.788" gradientUnits="userSpaceOnUse">
<stop stop-color="#0162CD"/>
<stop offset="1" stop-color="#0162CD" stop-opacity="0"/>
</linearGradient>
<linearGradient id="paint3_linear_98_221070" x1="1733.61" y1="266.558" x2="1750.65" y2="497.148" gradientUnits="userSpaceOnUse">
<stop stop-color="#1474EC"/>
<stop offset="0.926195" stop-color="#012EA0"/>
</linearGradient>
<clipPath id="clip0_98_221070">
<rect width="1920" height="434" fill="white" transform="translate(0.914062)"/>
</clipPath>
</defs>
</svg>
